<svg xmlns="http://www.w3.org/2000/svg" width="40" height="40" viewBox="0 0 40 40" fill="none">
    <rect width="40" height="40" rx="15" fill="black" fill-opacity="0.2"/>
    <rect x="0.5" y="0.5" width="39" height="39" rx="14.5" stroke="white" stroke-opacity="0.1"/>
    <path d="M8.12256 16.6757V23.6481H12.9155L18.8913 28.3176V12.007L12.9162 16.6757H8.12256Z" fill="white"/>
    <path d="M26.106 9L24.7012 11.2106C27.2586 12.3124 29.1972 15.9641 29.1972 20.161C29.1972 24.3231 27.2911 27.9483 24.7663 29.0828L26.1408 31.3047C29.4434 29.6197 31.7963 25.2667 31.7963 20.1618C31.7963 15.0379 29.4275 10.6721 26.106 9Z" fill="white"/>
    <path d="M23.3728 13.2998L21.9976 15.4642C23.1297 16.4752 23.8984 18.22 23.8984 20.1609C23.8984 22.0451 23.1751 23.746 22.0968 24.7683L23.4531 26.9607C25.285 25.5127 26.4982 23.0084 26.4982 20.1617C26.4982 17.2733 25.2501 14.7387 23.3728 13.2998Z" fill="white"/>
  </svg>