<svg xmlns="http://www.w3.org/2000/svg" width="40" height="40" viewBox="0 0 40 40" fill="none">
    <g filter="url(#filter0_b_21_80014)">
      <rect width="40" height="40" rx="15" fill="black" fill-opacity="0.4"/>
    </g>
    <path d="M8.87346 23.9322C9.543 24.6976 10.3066 25.3753 11.1461 25.9492C11.9753 26.5727 12.817 27.1494 13.6619 27.7355C15.8846 29.2942 18.1323 30.7999 20.4174 32.2558C20.9318 32.5675 21.4462 32.9042 21.9761 33.2191C22.5061 33.5339 23.0704 33.8426 23.7469 33.7366C24.0848 33.6858 24.4046 33.551 24.6769 33.3446C24.9492 33.1382 25.1654 32.8667 25.3056 32.5551C25.4424 32.2063 25.4989 31.8313 25.4708 31.4577C25.4552 31.0057 25.4428 30.5568 25.4303 30.1047C25.4053 29.288 25.3804 28.4681 25.3524 27.6513C25.3243 26.8345 26.3655 27.0278 26.8799 27.0091C27.7746 26.9748 28.6849 27.0091 29.5734 26.8969C29.9512 26.8609 30.3111 26.7189 30.6117 26.4872C30.9123 26.2556 31.1413 25.9437 31.2724 25.5875C31.4937 24.964 31.3659 24.2626 31.3379 23.6298L31.1321 19.178C31.0978 18.4174 31.0604 17.6598 31.0261 16.9023C31.0362 16.2353 30.9977 15.5685 30.9108 14.9071C30.8384 14.5521 30.6708 14.2236 30.4258 13.9567C30.1809 13.6897 29.8679 13.4945 29.5204 13.392C29.1383 13.3109 28.7457 13.292 28.3576 13.3359L27.0514 13.392L25.8044 13.4544C25.5207 13.4544 25.1809 13.5354 24.9596 13.3266C24.8735 13.2273 24.8093 13.1111 24.7712 12.9854C24.733 12.8597 24.7218 12.7274 24.7382 12.5971L24.6416 9.93165C24.6104 9.10864 24.6852 8.27005 24.0773 7.61226C23.8474 7.37096 23.5602 7.1918 23.2424 7.0915C22.9246 6.9912 22.5866 6.97302 22.2598 7.03865C21.655 7.15711 21.1687 7.60915 20.7011 7.97389C19.6038 8.81248 18.5438 9.70096 17.4964 10.605C15.336 12.4755 13.2348 14.4239 11.2365 16.469C10.3231 17.4042 9.36602 18.3581 8.67706 19.4742C8.22255 20.1624 7.98674 20.972 8.00058 21.7967C8.05804 22.583 8.36369 23.3307 8.87346 23.9322Z" fill="white"/>
    <defs>
      <filter id="filter0_b_21_80014" x="-150" y="-150" width="340" height="340" filterUnits="userSpaceOnUse" color-interpolation-filters="sRGB">
        <feFlood flood-opacity="0" result="BackgroundImageFix"/>
        <feGaussianBlur in="BackgroundImageFix" stdDeviation="75"/>
        <feComposite in2="SourceAlpha" operator="in" result="effect1_backgroundBlur_21_80014"/>
        <feBlend mode="normal" in="SourceGraphic" in2="effect1_backgroundBlur_21_80014" result="shape"/>
      </filter>
    </defs>
  </svg>