<svg xmlns="http://www.w3.org/2000/svg" width="30" height="30" viewBox="0 0 30 30" fill="none">
    <path fill-rule="evenodd" clip-rule="evenodd" d="M15.375 7.93182C10.5739 7.93182 6.68182 11.8219 6.68182 16.625C6.68182 21.4281 10.5739 25.3182 15.375 25.3182C20.1761 25.3182 24.0682 21.4281 24.0682 16.625C24.0682 11.8219 20.1761 7.93182 15.375 7.93182ZM4.75 16.625C4.75 10.7547 9.50735 6 15.375 6C21.2427 6 26 10.7547 26 16.625C26 22.4952 21.2427 27.25 15.375 27.25C9.50735 27.25 4.75 22.4952 4.75 16.625Z" fill="white"/>
    <path fill-rule="evenodd" clip-rule="evenodd" d="M15.3751 9.86359C15.9085 9.86359 16.341 10.296 16.341 10.8295V16.6249C16.341 17.1584 15.9085 17.5909 15.3751 17.5909C14.8416 17.5909 14.4092 17.1584 14.4092 16.6249V10.8295C14.4092 10.296 14.8416 9.86359 15.3751 9.86359Z" fill="white"/>
    <path fill-rule="evenodd" clip-rule="evenodd" d="M15.3751 2.61938C15.9085 2.61938 16.341 3.05184 16.341 3.58529V6.96598C16.341 7.49943 15.9085 7.93188 15.3751 7.93188C14.8416 7.93188 14.4092 7.49943 14.4092 6.96598V3.58529C14.4092 3.05184 14.8416 2.61938 15.3751 2.61938Z" fill="white"/>
    <path fill-rule="evenodd" clip-rule="evenodd" d="M23.3025 6.76589C23.6795 7.1431 23.6795 7.75467 23.3025 8.13188L21.8536 9.58074C21.4763 9.95797 20.8647 9.95797 20.4874 9.58074C20.1103 9.20354 20.1103 8.59196 20.4874 8.21475L21.9363 6.76589C22.3136 6.38866 22.9252 6.38866 23.3025 6.76589Z" fill="white"/>
    <path fill-rule="evenodd" clip-rule="evenodd" d="M7.44747 6.76589C7.07024 7.1431 7.07024 7.75467 7.44747 8.13188L8.89633 9.58074C9.27354 9.95797 9.88512 9.95797 10.2623 9.58074C10.6395 9.20354 10.6395 8.59196 10.2623 8.21475L8.81346 6.76589C8.43625 6.38866 7.82468 6.38866 7.44747 6.76589Z" fill="white"/>
    <path fill-rule="evenodd" clip-rule="evenodd" d="M11.5112 3.10226C11.5112 2.56881 11.9437 2.13635 12.4771 2.13635H18.2726C18.806 2.13635 19.2385 2.56881 19.2385 3.10226C19.2385 3.63571 18.806 4.06817 18.2726 4.06817H12.4771C11.9437 4.06817 11.5112 3.63571 11.5112 3.10226Z" fill="white"/>
  </svg>