<svg xmlns="http://www.w3.org/2000/svg" width="40" height="40" viewBox="0 0 40 40" fill="none">
    <rect width="40" height="40" rx="15" fill="black" fill-opacity="0.2"/>
    <rect x="0.5" y="0.5" width="39" height="39" rx="14.5" stroke="white" stroke-opacity="0.1"/>
    <path d="M30 26.0926C27.6981 24.0258 25.5536 22.0438 23.5414 20.1325C25.7066 17.8633 27.7701 15.8085 29.7219 13.9967L25.1783 9C23.4946 11.4551 21.6112 13.8706 19.5504 16.2511C17.2737 13.9847 15.212 11.8324 13.3924 9.8107L9 13.9083C11.4324 15.7174 13.8351 17.729 16.2127 19.9181C14.1447 22.0649 11.9202 24.1823 9.53634 26.2674L13.8217 31C16.021 28.4032 18.1348 25.9905 20.1641 23.7572C22.0602 25.6997 23.941 27.7582 25.8011 29.9482L30 26.0926Z" fill="white"/>
  </svg>