<svg xmlns="http://www.w3.org/2000/svg" width="40" height="40" viewBox="0 0 40 40" fill="none">
    <path d="M13.1159 29.291C10.2198 27.5196 8.37685 24.5757 8.06092 21.2075C7.63966 16.7916 9.48264 14.4713 11.1413 13.2987C13.1686 11.8766 16.012 11.3527 19.2504 11.8018C19.619 10.6042 19.9349 9.23203 20.9617 9.00749C22.0675 8.78295 28.2546 13.6729 28.1493 15.095C28.044 16.4922 19.7243 20.1098 18.5659 19.3863C18.092 19.0869 18.092 17.3903 18.3816 15.4942C16.3806 15.2447 14.7219 15.5192 13.6425 16.2676C12.4314 17.1159 11.9575 18.6627 12.1681 20.8583C12.3787 23.1037 13.5898 25.0497 15.4328 26.1724C17.2495 27.2702 19.54 27.5446 21.8832 26.8959C23.6735 26.3969 26.0694 24.8501 27.0435 22.6296C27.4648 21.6566 28.6496 21.7315 29.7027 22.1057C30.4662 22.3801 31.3087 22.9789 30.8875 23.9769C29.4394 27.3949 25.8851 29.7152 23.068 30.4886C19.5137 31.4616 15.9857 31.0374 13.1159 29.291Z" fill="white"/>
    </svg>